<?xml version="1.0" encoding="utf-8"?>
<!-- Generator: Adobe Illustrator 18.1.1, SVG Export Plug-In . SVG Version: 6.00 Build 0)  -->
<svg version="1.1" id="Layer_1" xmlns="http://www.w3.org/2000/svg" xmlns:xlink="http://www.w3.org/1999/xlink" x="0px" y="0px"
	 viewBox="0 0 480 966" enable-background="new 0 0 480 966" xml:space="preserve">
<g id="Layer_1_1_">
	<g>
		<path fill="#18254F" d="M151.6,750.2L130.8,771c-0.1,0.1,0.3,0.5,0.5,0.7c10.3-3.4,20.7-6.9,31.4-10.4L151.6,750.2z M241.4,840.1
			l-20.7,20.7c0,0,0.2,0.4,0.4,0.6c10.3-3.4,20.5-7,31.1-10.6L241.4,840.1z M393.1,759.7c-0.3-0.4-0.7-0.6-1-1
			c-0.7-0.9-1.6-1.5-2.4-2.4l-1.1-1.1c-1.4,1.5-6.7-1.8-7.9-0.5c1.3,1.4,7.6,7.7,8.9,9.1c2.8,3,1.6,6.7-2.4,8.6
			c-8,3.9-16,7.7-24,11.5c-1.8,0.8-3.5,1.7-5.3,2.5c-5.6,2.6-11.1,5.3-16.7,7.9c-7.4,3.5-14.9,7-22.3,10.7c-1.7,0.9-3,1.1-4.1-0.1
			l-0.1-0.1l-8.3-6.6c-0.6-0.3-1.1-0.7-1.7-1.2c-2-1.7-4.1-3.3-6.1-5l-15.4-12l-5-4l-0.9-0.7c-0.4-0.2-0.8-0.5-1.3-0.9
			c-2.4-2-4.7-3.9-7.1-5.8l-0.4-0.4l-3.8-3c-3-2.4-6.1-4.8-9.1-7.2c-0.3-0.2-0.5-0.5-0.7-0.7l-1.4-1.1l-5-4l-8.6-7.1l-0.4-0.4l0,0
			c-5.4-4-10.1-8.1-15.6-12.6l-5.1-3.9l-24.9-19.8l-5-3.9l-1.6-1.2c-0.1-1.3-0.8-2.8-0.3-3.7c3.7-6.2,7.6-12.2,11.5-18.4
			c3.6,3.1,4.5-0.5,6.6-2.2c-1-1.2-1.8-2.1-3-3.5c5.6-8.9,11.1-17.8,17.1-27.4l8.2,8.2l4.5-4.5c-2.1-2.1-4.7-4.9-7.2-7.1
			c-1.6-1.4-1.7-2.7-0.7-4.4c5.2-8.3,10.5-16.5,16.1-25.5c4,4,7.9,7.9,11.8,11.7c1.1,1.1,1.9,3.1,4.2,2.1c0.2-0.1,0.4-0.3,0.6-0.4
			l1.3-1.5c0.7-0.8,0.6-1.9-0.1-2.6c-4.2-4.2-7.5-7.5-11.9-11.8c-1.7-1.7-2.5-3-1-5.3c19.2-31.1,38.4-62.3,57.7-93.4
			c2.6-4.2,4.4-8.1,2.1-13.2l-41.9-41.9c-5.6-2.8-11.1-2.5-16.4,0.7l-1.1,1.1c-4.2,10.3-3.6,12.9,4.5,21.1
			c12.9,12.9,25.9,25.9,38.9,38.8c1.9,1.9,2.3,3.3,0.9,5.6c-10.7,17-21.4,34-32.1,51.1c-22.2,35.5-44.4,71-66.7,106.5
			c-3.2,5.1-6.4,10.1-9.6,15c-21.1-9.8-31.4-3.8-38.2,3.4c-15,16.1-10.1,30.9,4.6,44.4c-7.3,7.3-14.2,14.1-21,21.1
			c-3.2,3.3-4,6.9-1.7,9.4c2.6,2.9,5.6,2.2,8.9,0.7c4.7-2.1,9.6-3.5,14.9-5.4c0.1,8.7-3.7,14.3-10.1,17.9c-6.7,3.8-15.3,3-20.4-1.3
			c-6.6-5.5-9.8-12.4-7.2-21c2.4-8,8-12.9,16.3-13.8c3.6-0.4,5.6-2.1,7.7-4.9c-1.3-0.3-2.3-0.6-3.3-0.7c-9.9-0.7-17.8,3.1-23.2,11.3
			c-5,7.7-5.3,16.1-1.3,24.4c0.9,2,2.3,3.7,3.2,5.7l2.2,2.2c1.8,0.7,3.1,1.8,4.7,2.6c16.9,9.1,36.6-2.3,36.9-21.4
			c0-0.9,0-1.8,0.1-2.9c3.8-1.3,7.4-2.8,11.2-3.6c1.2-0.3,3.1,0.8,4.1,1.8c17.2,17.1,34.3,34.3,51.4,51.4l15.9,15.9
			c-6.4,6.4-12.1,12.1-18,18c-1.3,1.3-2.7,2.5-3.9,3.9c-2.3,2.7-3,5.8-0.7,8.6c2.2,2.7,5.1,2.3,8.2,1c4.9-2.1,9.9-3.8,15-5.7
			c1.9,11.3-9.8,21.9-21.4,20.1c-9.7-1.5-16.8-9.9-16.7-19.4c0.1-9.4,7.3-17.3,16.8-19c2.8-0.5,5.5-2.1,8.2-3.2
			c-0.1-0.6-0.2-1.3-0.4-2c-2.7-0.1-5.5-0.6-8.2-0.3c-9.3,1.2-16.1,6-19.8,14.7c-3.7,8.6-2.9,16.9,2.8,24.6c0.4,0.6,0.4,1.6,0.9,2.1
			l2.2,2.2c0.8,0.8,2.1,1,3,1.7c9.1,6.3,24.6,6.1,33.4-5.5c4-5.3,5.4-11.3,5.2-17.9c2.6-0.9,5.1-1.5,7.5-2.6c4-1.9,7-1.3,9.8,2.3
			c1.6,2.1,4.1,5.3,6.7,2.7c2.9-2.8-0.7-5.1-2.7-7c-39.6-39.6-79.2-79.2-118.8-118.9c-1.3-1.3-2.6-2.7-3.5-4.2
			c-7.6-12.4-1-23.6,9.2-30.2c9.3-6,19-3.3,27.4,2.5c8.1,5.5,15.4,12.2,23.1,18.3c4.8,3.8,9.7,7.6,14.5,11.4c1,0.8,1.9,1.5,2.9,2.3
			c6.4,5.1,12.9,10.2,19.3,15.3c1.9,1.5,3.8,3,5.6,4.5c1.7,1.3,3.3,2.7,4.9,4c8.2,6.7,16.4,13.4,24.7,20c0.4,0.3,0.7,0.6,1.1,0.8
			c1.3,1,2.6,2.1,3.9,3.1c11.1,8.8,22.3,17.6,33.3,26.5c2.1,1.7,3.9,1.9,6.1,0.8c5.5-2.7,11-5.2,16.6-7.9c8.9-4.2,18-8.6,26.7-12.6
			l-0.3-0.3l0.1-0.2c9.3-3.7,17.8-8.2,26.6-12.4C396.6,774,398.2,767.3,393.1,759.7z M291.2,514.2c-13.5-13.5-27-27-40.5-40.5
			c-3.4-3.4-3.6-6.6-0.7-9.6c3.1-3.2,6.4-3.1,9.9,0.4c12.7,12.7,25.3,25.4,38.1,38c2.3,2.3,2.7,4,0.7,6.7c-1.7,2.2-3,4.9-4.6,7.6
			C292.9,515.7,292,515,291.2,514.2z"/>
		<path fill="#18254F" d="M176.8,353c1.7,0,3.1,1.4,3.1,3.1c0,24.7-0.1,49.3-0.1,74c0,0.6,0,1.2,0,1.8c0,1.7-1.4,3.1-3.1,3.1l0,0
			c-1.7,0-3.1-1.4-3.1-3.1v-75.7c0-1.7,1.4-3.1,3.1-3.1h0.1V353z"/>
		<path fill="#18254F" d="M186.8,486c1.7,0,3.1,1.4,3.1,3.1c0,22.3-0.1,19.4-0.1,44c0,0.6,0,1.2,0,1.8c0,1.7-1.4,3.1-3.1,3.1l0,0
			c-1.7,0-3.1-1.4-3.1-3.1v-45.7c0-1.7,1.4-3.1,3.1-3.1L186.8,486L186.8,486z"/>
		<path fill="#18254F" d="M316.8,216c1.7,0,3.1,1.4,3.1,3.1c0,22.3-0.1,19.4-0.1,44c0,0.6,0,1.2,0,1.8c0,1.7-1.4,3.1-3.1,3.1l0,0
			c-1.7,0-3.1-1.4-3.1-3.1v-45.7c0-1.7,1.4-3.1,3.1-3.1L316.8,216L316.8,216z"/>
		<path fill="#18254F" d="M363.1,466.2L363.1,466.2c-1.5,0-2.8-1.2-2.8-2.8v-57c0-1.5,1.2-2.8,2.8-2.8l0,0c1.5,0,2.8,1.2,2.8,2.8v57
			C365.8,465,364.6,466.2,363.1,466.2z"/>
		<path fill="#18254F" d="M343.9,496.2L343.9,496.2c-1.5,0-2.8-1.2-2.8-2.8v-57c0-1.5,1.2-2.8,2.8-2.8l0,0c1.5,0,2.8,1.2,2.8,2.8v57
			C346.7,495,345.4,496.2,343.9,496.2z"/>
		<path fill="#18254F" d="M202,447.6L202,447.6c-1.5,0-2.8-1.2-2.8-2.8v-50.7c0-1.5,1.2-2.8,2.8-2.8l0,0c1.5,0,2.8,1.2,2.8,2.8v50.7
			C204.8,446.4,203.6,447.6,202,447.6z"/>
		<path fill="#18254F" d="M179.9,353c0.4,0,0.3,77.1-0.1,77.1"/>
	</g>
	<g>
		<polygon fill="#18254F" points="232.9,705.7 214.5,687.3 210.3,683.1 206.1,687.3 188.4,705 192.6,709.2 210.3,691.6 228.7,709.9 
					"/>
		<polygon fill="#18254F" points="236.4,665.4 254.8,683.8 259.1,679.5 240.6,661.1 236.4,656.9 232.4,661 214.5,678.8 218.8,683.1 
					"/>
		<polygon fill="#18254F" points="267.5,687.9 263.3,683.8 259.2,687.8 241.4,705.7 245.6,709.9 263.3,692.3 281.7,710.7 
			285.9,706.4 		"/>
		<polygon fill="#18254F" points="290.2,719.1 307.9,736.8 312.1,732.6 294.3,714.8 290.2,710.7 286.1,714.7 268.3,732.6 
			272.5,736.8 		"/>
		<polygon fill="#18254F" points="339,759.4 321.2,741.6 317,737.5 313,741.6 295.1,759.4 299.4,763.7 317,746 334.7,763.7 		"/>
		<polygon fill="#18254F" points="343.9,764.4 339.9,768.4 322,786.3 326.2,790.6 343.9,772.9 361.6,790.6 365.8,786.3 348,768.5 		
			"/>
		<polygon fill="#18254F" points="264,637.8 282.4,656.2 285.9,652.7 267.5,634.2 263.3,630 259.8,633.6 242.1,651.3 246.3,655.5 		
			"/>
		<polygon fill="#18254F" points="273.2,682.4 290.9,664.7 309.3,683.1 312.8,679.5 294.3,661.1 290.2,656.9 286.7,660.4 269,678.1 
					"/>
		<polygon fill="#18254F" points="300.1,709.2 317.8,691.6 335.4,709.2 339,705.7 321.2,687.9 317,683.8 313.5,687.3 295.8,705 		
			"/>
		<polygon fill="#18254F" points="326.9,736.1 344.6,718.4 362.3,736.1 365.8,732.6 348,714.8 343.9,710.7 340.4,714.2 322.7,731.9 
					"/>
		<path fill="#18254F" d="M391.7,757.7l-16.4-16.4L371,737l-3.9,3.9l-17.9,17.9l4.5,4.5l17.9-17.9l17.9,17.9l2.2-2.2
			C392.6,760.2,392.6,758.7,391.7,757.7z"/>
		<polygon fill="#18254F" points="259.8,732.6 241.3,714.1 237.1,709.9 233,714.1 215.2,731.9 219.5,736.1 237.1,718.4 255.5,736.8 
					"/>
		<path fill="#18254F" d="M285.9,758.7L264,736.8l-19.3,19.3c1.6,1.3,3.1,2.5,4.7,3.8l14.6-14.6l17.7,17.6L285.9,758.7z"/>
		<path fill="#18254F" d="M274.5,780.1c0-0.1,0.5,0.4,0.9,0.7c1.3,1,2.3,1.7,3.8,3l11.7-11.7l17.7,17.7l4.2-4.2l-21.8-22
			L274.5,780.1z"/>
	</g>
	<path fill="#18254F" d="M374.9,656.5c-23.3-23.3-61.1-23.3-84.5,0l84.5,84.5C398.2,717.6,398.2,679.8,374.9,656.5z M311.2,671.2
		c-3.7-3.7-3.7-9.7,0-13.5c3.7-3.7,9.7-3.7,13.5,0c3.7,3.7,3.7,9.7,0,13.5C321,674.9,315,674.9,311.2,671.2z M360.2,720.1
		c-3.7-3.7-3.7-9.7,0-13.5c3.7-3.7,9.7-3.7,13.5,0c3.7,3.7,3.7,9.7,0,13.5C369.9,723.8,363.9,723.8,360.2,720.1z"/>
	<g>
		<path fill="#18254F" d="M255,459h-5v-62.8c0-13.1-7.3-25-19-31l-1-0.5c-5.3-2.7-9.2-7.6-10.6-13.4s-0.2-11.9,3.3-16.7l20.6-28.3
			c4.3-6,6.6-13,6.6-20.4v-13.6c0-5.4,1.8-10.8,5.1-15.2l3.8-5.1c6.2-8.2,6.2-19.7,0-28l-3.8-5.1c-3.3-4.4-5.1-9.8-5.1-15.2v-6.2
			c0-2.4-0.5-4.8-1.4-7l-5.7-13.6c-2-4.9-1.8-10.3,0.6-15l4.4-8.5c1.3-2.6,2-5.5,2-8.4L249.7,0h5l0.1,144.9c0,3.7-0.9,7.4-2.6,10.7
			l-4.4,8.5c-1.7,3.4-1.9,7.3-0.4,10.8l5.7,13.6c1.2,2.9,1.8,5.9,1.8,9v6.2c0,4.4,1.4,8.7,4.1,12.2l3.8,5.1c7.5,10,7.5,24,0,34
			l-3.8,5.1c-2.6,3.5-4.1,7.8-4.1,12.2v13.6c0,8.5-2.6,16.5-7.6,23.4l-20.6,28.3c-2.6,3.6-3.6,8.2-2.5,12.6s4,8.1,8,10.1l1,0.5
			c13.4,6.8,21.7,20.4,21.7,35.4L255,459L255,459z"/>
	</g>
</g>
</svg>
