<?xml version="1.0" encoding="utf-8"?>
<!-- Generator: Adobe Illustrator 18.1.1, SVG Export Plug-In . SVG Version: 6.00 Build 0)  -->
<svg version="1.1" id="Layer_1" xmlns="http://www.w3.org/2000/svg" xmlns:xlink="http://www.w3.org/1999/xlink" x="0px" y="0px"
	 viewBox="0 0 480 966" enable-background="new 0 0 480 966" xml:space="preserve">
<g id="Layer_2">
	<path fill="#18254F" d="M358.1,416.8c-5.9,0-11,5-10.9,10.7c0.1,5.4,5.2,10.6,10.6,10.8c5.7,0.2,10.9-4.9,10.9-10.7
		C368.8,421.6,364.2,416.8,358.1,416.8z M358.3,431.6c-2.7,0.7-4.2-1.3-4.4-3c-0.1-4,1.9-5.8,4.3-5.4c1.7,0.3,3.8,2.7,4.2,4.5
		C362.5,428.7,359.9,431.2,358.3,431.6z M332.5,416.8c-5.9-0.1-10.9,4.6-11,10.5c-0.1,5.6,5,10.9,10.7,11.1
		c5.6,0.2,10.8-5,10.9-10.7C343.2,421.8,338.4,416.9,332.5,416.8z M332.6,431.8c-2.9,0-4.5-1.4-4.5-4.3c-0.1-2.9,1.9-4.7,4.3-4.3
		c1.6,0.3,3.7,2.4,4.1,4.1C337.1,429.8,335.4,431.7,332.6,431.8z M306.3,416.8c-5.9,0.1-10.7,4.9-10.6,10.8
		c0.1,5.7,5.3,10.9,10.9,10.7c5.6-0.1,10.8-5.5,10.7-11.1C317.2,421.5,312.3,416.8,306.3,416.8z M306.4,431.8c-2.7,0-4-1.5-4.2-4.1
		c-0.1-2.8,1.5-4.5,4.2-4.6c2.6,0,4.3,1.5,4.4,4.3C310.7,430.3,309.3,431.8,306.4,431.8z M285.3,424.3c-1-0.5-2.4-0.3-3.7-0.3H202
		c-26.7,0-53.3,0.1-80,0.2c-2.6,0-6.3-0.9-6.3,3.3c0.1,4.2,3.9,3.1,6.4,3.1c53.2,0.1,106.4,0.1,159.6,0.1c1.2,0,2.7,0.2,3.7-0.3
		c1.1-0.6,2.7-2.1,2.6-3C288,426.2,286.5,424.9,285.3,424.3z M358.1,416.8c-5.9,0-11,5-10.9,10.7c0.1,5.4,5.2,10.6,10.6,10.8
		c5.7,0.2,10.9-4.9,10.9-10.7C368.8,421.6,364.2,416.8,358.1,416.8z M358.3,431.6c-2.7,0.7-4.2-1.3-4.4-3c-0.1-4,1.9-5.8,4.3-5.4
		c1.7,0.3,3.8,2.7,4.2,4.5C362.5,428.7,359.9,431.2,358.3,431.6z M332.5,416.8c-5.9-0.1-10.9,4.6-11,10.5c-0.1,5.6,5,10.9,10.7,11.1
		c5.6,0.2,10.8-5,10.9-10.7C343.2,421.8,338.4,416.9,332.5,416.8z M332.6,431.8c-2.9,0-4.5-1.4-4.5-4.3c-0.1-2.9,1.9-4.7,4.3-4.3
		c1.6,0.3,3.7,2.4,4.1,4.1C337.1,429.8,335.4,431.7,332.6,431.8z M306.3,416.8c-5.9,0.1-10.7,4.9-10.6,10.8
		c0.1,5.7,5.3,10.9,10.9,10.7c5.6-0.1,10.8-5.5,10.7-11.1C317.2,421.5,312.3,416.8,306.3,416.8z M306.4,431.8c-2.7,0-4-1.5-4.2-4.1
		c-0.1-2.8,1.5-4.5,4.2-4.6c2.6,0,4.3,1.5,4.4,4.3C310.7,430.3,309.3,431.8,306.4,431.8z M285.3,424.3c-1-0.5-2.4-0.3-3.7-0.3H202
		c-26.7,0-53.3,0.1-80,0.2c-2.6,0-6.3-0.9-6.3,3.3c0.1,4.2,3.9,3.1,6.4,3.1c53.2,0.1,106.4,0.1,159.6,0.1c1.2,0,2.7,0.2,3.7-0.3
		c1.1-0.6,2.7-2.1,2.6-3C288,426.2,286.5,424.9,285.3,424.3z M107,413h270v28H107V413z M358.1,416.8c-5.9,0-11,5-10.9,10.7
		c0.1,5.4,5.2,10.6,10.6,10.8c5.7,0.2,10.9-4.9,10.9-10.7C368.8,421.6,364.2,416.8,358.1,416.8z M358.3,431.6
		c-2.7,0.7-4.2-1.3-4.4-3c-0.1-4,1.9-5.8,4.3-5.4c1.7,0.3,3.8,2.7,4.2,4.5C362.5,428.7,359.9,431.2,358.3,431.6z M332.5,416.8
		c-5.9-0.1-10.9,4.6-11,10.5c-0.1,5.6,5,10.9,10.7,11.1c5.6,0.2,10.8-5,10.9-10.7C343.2,421.8,338.4,416.9,332.5,416.8z
		 M332.6,431.8c-2.9,0-4.5-1.4-4.5-4.3c-0.1-2.9,1.9-4.7,4.3-4.3c1.6,0.3,3.7,2.4,4.1,4.1C337.1,429.8,335.4,431.7,332.6,431.8z
		 M306.3,416.8c-5.9,0.1-10.7,4.9-10.6,10.8c0.1,5.7,5.3,10.9,10.9,10.7c5.6-0.1,10.8-5.5,10.7-11.1
		C317.2,421.5,312.3,416.8,306.3,416.8z M306.4,431.8c-2.7,0-4-1.5-4.2-4.1c-0.1-2.8,1.5-4.5,4.2-4.6c2.6,0,4.3,1.5,4.4,4.3
		C310.7,430.3,309.3,431.8,306.4,431.8z M285.3,424.3c-1-0.5-2.4-0.3-3.7-0.3H202c-26.7,0-53.3,0.1-80,0.2c-2.6,0-6.3-0.9-6.3,3.3
		c0.1,4.2,3.9,3.1,6.4,3.1c53.2,0.1,106.4,0.1,159.6,0.1c1.2,0,2.7,0.2,3.7-0.3c1.1-0.6,2.7-2.1,2.6-3
		C288,426.2,286.5,424.9,285.3,424.3z M107.8,878h268.8c6.6,0,7.5-0.3,7.5-6.8V454.7c0-13.6-0.2-27.2-0.2-40.8
		c0-5.9-0.6-6.4-6.5-6.4c-90.3,0-180.7,0-271,0c-5.6,0-6.3,0.5-6.3,6.1v456.8C100,877.9,100.5,878,107.8,878z M107,448h270v423H107
		V448z"/>
	<path fill="#18254F" d="M176.9,347.8c-33,0-59.7,26.7-59.7,59.7h119.4C236.7,374.5,209.9,347.8,176.9,347.8z M142.3,403.2
		c-5.3,0-9.5-4.3-9.5-9.5c0-5.3,4.3-9.5,9.5-9.5c5.3,0,9.5,4.3,9.5,9.5C151.8,398.9,147.6,403.2,142.3,403.2z M211.6,403.2
		c-5.3,0-9.5-4.3-9.5-9.5c0-5.3,4.3-9.5,9.5-9.5c5.3,0,9.5,4.3,9.5,9.5C221.1,398.9,216.8,403.2,211.6,403.2z"/>
</g>
</svg>
