<?xml version="1.0" encoding="utf-8"?>
<!-- Generator: Adobe Illustrator 18.1.1, SVG Export Plug-In . SVG Version: 6.00 Build 0)  -->
<svg version="1.1" id="Layer_1" xmlns="http://www.w3.org/2000/svg" xmlns:xlink="http://www.w3.org/1999/xlink" x="0px" y="0px"
	 viewBox="0 0 480 966" enable-background="new 0 0 480 966" xml:space="preserve">
<g id="Layer_5">
	<path fill="#18254F" d="M130.1,804.9c-19.8-6.3-24.7-20.8-24.7-40.2c0.4-135.2,0.2-270.4,0.2-405.7c0-25.1,10.9-35.9,36.1-35.9
		c65.8,0,131.7,0,197.5,0c23.9,0,35.2,11.3,35.2,35.1c0,135.5-0.2,271,0.2,406.5c0.1,19.3-4.9,33.8-24.7,40.2
		C276.6,804.9,203.4,804.9,130.1,804.9z M360.3,705.6c0-104.5,0-208,0-311.7c-80.5,0-160.4,0-240.4,0c0,104.2,0,208,0,311.7
		C200.3,705.6,280,705.6,360.3,705.6z M119.1,719.9c0,18.4,0,35.8,0,53.1c0,13.9,4,18,17.6,18c68.8,0,137.5,0,206.3,0
		c2.1,0,4.8,0.8,6.1-0.2c4.1-3.2,10.9-6.8,11.1-10.6c1.1-19.9,0.5-39.9,0.5-60.3C280,719.9,200.1,719.9,119.1,719.9z M360.9,379.4
		c0-8.6,0-16.2,0-23.9c0-15.2-3.7-18.9-18.5-18.9c-54.3,0-108.6,0-162.9,0c-15.3,0-30.7,0-46,0c-8,0-13.4,4-14,11.7
		c-0.9,10.2-0.2,20.5-0.2,31.1C200,379.4,279.8,379.4,360.9,379.4z M260.9,755.5c0,15.7-5.2,20.8-21.4,20.7
		c-15.6,0-20.6-5.2-20.5-21.6c0-15.2,5.3-20.3,20.9-20.3C255.9,734.3,260.9,739.4,260.9,755.5z M233.3,748.3c0,5.4,0,9.6,0,13.8
		c5,0,9.2,0,13.6,0c0-4.9,0-9.2,0-13.8C242.1,748.3,237.8,748.3,233.3,748.3z M215.3,351.8c-3.5,0.4-6.6,4.2-9.9,6.4
		c3.3,2.3,6.5,6.3,9.9,6.5c16.5,0.7,33.1,0.7,49.5,0c3.4-0.1,6.6-4.2,9.9-6.4c-3.3-2.3-6.4-6-9.9-6.5c-8.1-1-16.5-0.3-24.8-0.3
		C231.8,351.5,223.4,350.8,215.3,351.8z"/>
	<path fill="#18254F" d="M240,660.4c-14.1,0-25.5,11.4-25.5,25.5h50.9C265.5,671.7,254.1,660.4,240,660.4z M225.2,684
		c-2.2,0-4.1-1.8-4.1-4.1c0-2.2,1.8-4.1,4.1-4.1c2.2,0,4.1,1.8,4.1,4.1S227.5,684,225.2,684z M254.8,684c-2.2,0-4.1-1.8-4.1-4.1
		c0-2.2,1.8-4.1,4.1-4.1c2.2,0,4.1,1.8,4.1,4.1C258.8,682.2,257,684,254.8,684z"/>
	<g>
		<path fill="#18254F" d="M179.5,483.5h-31c-9.6,0-17.5-7.9-17.5-17.5v-31c0-9.6,7.9-17.5,17.5-17.5h31c9.6,0,17.5,7.9,17.5,17.5v31
			C197,475.6,189.1,483.5,179.5,483.5z M148.5,424.5c-5.8,0-10.5,4.7-10.5,10.5v31c0,5.8,4.7,10.5,10.5,10.5h31
			c5.8,0,10.5-4.7,10.5-10.5v-31c0-5.8-4.7-10.5-10.5-10.5H148.5z"/>
	</g>
	<g>
		<path fill="#18254F" d="M255.5,483.5h-31c-9.6,0-17.5-7.9-17.5-17.5v-31c0-9.6,7.9-17.5,17.5-17.5h31c9.6,0,17.5,7.9,17.5,17.5v31
			C273,475.6,265.1,483.5,255.5,483.5z M224.5,424.5c-5.8,0-10.5,4.7-10.5,10.5v31c0,5.8,4.7,10.5,10.5,10.5h31
			c5.8,0,10.5-4.7,10.5-10.5v-31c0-5.8-4.7-10.5-10.5-10.5H224.5z"/>
	</g>
	<g>
		<path fill="#18254F" d="M330.5,483.5h-31c-9.6,0-17.5-7.9-17.5-17.5v-31c0-9.6,7.9-17.5,17.5-17.5h31c9.6,0,17.5,7.9,17.5,17.5v31
			C348,475.6,340.1,483.5,330.5,483.5z M299.5,424.5c-5.8,0-10.5,4.7-10.5,10.5v31c0,5.8,4.7,10.5,10.5,10.5h31
			c5.8,0,10.5-4.7,10.5-10.5v-31c0-5.8-4.7-10.5-10.5-10.5H299.5z"/>
	</g>
	<g>
		<path fill="#18254F" d="M179.5,557.5h-31c-9.6,0-17.5-7.9-17.5-17.5v-31c0-9.6,7.9-17.5,17.5-17.5h31c9.6,0,17.5,7.9,17.5,17.5v31
			C197,549.6,189.1,557.5,179.5,557.5z M148.5,498.5c-5.8,0-10.5,4.7-10.5,10.5v31c0,5.8,4.7,10.5,10.5,10.5h31
			c5.8,0,10.5-4.7,10.5-10.5v-31c0-5.8-4.7-10.5-10.5-10.5H148.5z"/>
	</g>
	<g>
		<path fill="#18254F" d="M255.5,557.5h-31c-9.6,0-17.5-7.9-17.5-17.5v-31c0-9.6,7.9-17.5,17.5-17.5h31c9.6,0,17.5,7.9,17.5,17.5v31
			C273,549.6,265.1,557.5,255.5,557.5z M224.5,498.5c-5.8,0-10.5,4.7-10.5,10.5v31c0,5.8,4.7,10.5,10.5,10.5h31
			c5.8,0,10.5-4.7,10.5-10.5v-31c0-5.8-4.7-10.5-10.5-10.5H224.5z"/>
	</g>
	<g>
		<path fill="#18254F" d="M255.5,692.5h-31c-9.6,0-17.5-7.9-17.5-17.5v-31c0-9.6,7.9-17.5,17.5-17.5h31c9.6,0,17.5,7.9,17.5,17.5v31
			C273,684.6,265.1,692.5,255.5,692.5z M224.5,633.5c-5.8,0-10.5,4.7-10.5,10.5v31c0,5.8,4.7,10.5,10.5,10.5h31
			c5.8,0,10.5-4.7,10.5-10.5v-31c0-5.8-4.7-10.5-10.5-10.5H224.5z"/>
	</g>
</g>
</svg>
