<svg width="35" height="19" viewBox="0 0 35 19" fill="none" xmlns="http://www.w3.org/2000/svg">
<path d="M34 17.934C34 17.934 34.369 18.5 17.369 18.5C0.36899 18.5 0.999992 17.934 0.999992 17.934C-9.23872e-07 8.5 7.70899 0.907997 17.369 0.907997C27.029 0.907997 35 8.5 34 17.934ZM10.02 13.986C10.02 12.486 8.77299 11.272 7.23199 11.272C5.69199 11.272 4.44499 12.486 4.44499 13.986C4.44499 15.486 5.68999 16.7 7.23199 16.7C8.77399 16.7 10.02 15.486 10.02 13.986ZM30.294 13.986C30.294 12.486 29.047 11.272 27.506 11.272C25.966 11.272 24.719 12.486 24.719 13.986C24.719 15.486 25.965 16.7 27.506 16.7C29.047 16.7 30.294 15.486 30.294 13.986Z" fill="white"/>
</svg>
