<svg xmlns="http://www.w3.org/2000/svg" width="230" height="46" viewBox="0 0 230 46"><g><g><path d="M61.915 16.26h3.497v13.338c0 4.101-3.322 7.428-7.416 7.428h-.143c-4.094 0-7.412-3.327-7.412-7.428V16.26h3.496v13.337a3.925 3.925 0 0 0 3.916 3.926h.143c2.16 0 3.92-1.762 3.92-3.926zM82.24 29.807c0 4.047-3.275 7.329-7.315 7.329a7.256 7.256 0 0 1-3.82-1.088v7.309h-3.496V29.575h.012c.122-3.94 3.341-7.097 7.304-7.097 4.04 0 7.315 3.28 7.315 7.328zm-3.496 0a3.827 3.827 0 0 0-3.82-3.826 3.827 3.827 0 0 0 0 7.652 3.827 3.827 0 0 0 3.82-3.826zM138.2 16.174h3.496v13.78h-.011c-.123 3.94-3.342 7.097-7.304 7.097-4.04 0-7.316-3.28-7.316-7.327 0-4.048 3.275-7.329 7.316-7.329 1.401 0 2.706.402 3.819 1.087zm0 13.55v-.002a3.826 3.826 0 0 0-3.82-3.825 3.827 3.827 0 0 0 0 7.652 3.827 3.827 0 0 0 3.82-3.825zM95.813 35.77a6.164 6.164 0 0 1-4.634 10.228c-.06 0-.122 0-.182-.004v-3.51c.06.008.12.011.182.011a2.668 2.668 0 0 0 0-5.337c-.063 0-.122.004-.182.01v-.063a7.32 7.32 0 0 1-6.74-7.3c0-4.047 3.276-7.328 7.316-7.328s7.316 3.28 7.316 7.328a7.318 7.318 0 0 1-3.076 5.965zm-4.24-2.139a3.827 3.827 0 0 0 0-7.652 3.827 3.827 0 0 0 0 7.652zm33.078-4.874h.07v8.263h-3.496v-1.056a7.268 7.268 0 0 1-3.819 1.086c-4.04 0-7.316-3.28-7.316-7.327 0-4.048 3.276-7.329 7.316-7.329 3.713 0 6.772 2.773 7.245 6.363zm-3.426.966a3.827 3.827 0 0 0-3.819-3.827 3.827 3.827 0 0 0 0 7.652 3.827 3.827 0 0 0 3.82-3.825zm26.594 1.75a3.822 3.822 0 0 0 3.433 2.158c.622 0 1.213-.15 1.734-.42l2.539 2.542a7.262 7.262 0 0 1-4.273 1.38c-3.465 0-6.37-2.416-7.122-5.66a7.374 7.374 0 0 1 .038-3.502c.815-3.159 3.679-5.495 7.084-5.495 3.409 0 6.272 2.336 7.087 5.495a7.374 7.374 0 0 1 .038 3.503zm6.786-3.502a3.813 3.813 0 1 0-6.702 0zm-46.644-5.59h1.451v3.503h-1.45a3.233 3.233 0 0 0-3.228 3.233v7.666h-3.496v-7.666c0-3.72 3.01-6.735 6.723-6.735zm56.054-6.066h2.443v14.997c0 .45.089.877.267 1.28.178.403.412.756.702 1.055.29.301.637.535 1.04.704.402.169.828.253 1.278.253.45 0 .875-.084 1.278-.253a3.237 3.237 0 0 0 1.053-.704c.3-.3.538-.652.716-1.055a3.14 3.14 0 0 0 .267-1.28V16.316h2.444v14.997c0 .45.084.877.253 1.28a3.238 3.238 0 0 0 1.755 1.759c.402.169.829.253 1.278.253.45 0 .875-.084 1.278-.253a3.075 3.075 0 0 0 1.04-.704c.29-.3.524-.652.702-1.055.177-.403.267-.83.267-1.28V16.316h2.443v14.997a5.626 5.626 0 0 1-1.685 4.065 5.924 5.924 0 0 1-1.826 1.224c-.693.3-1.432.451-2.219.451-.917 0-1.77-.197-2.556-.591a5.807 5.807 0 0 1-1.966-1.576 5.802 5.802 0 0 1-1.966 1.576 5.63 5.63 0 0 1-2.556.591c-.787 0-1.527-.15-2.22-.45a5.923 5.923 0 0 1-1.825-1.225 5.657 5.657 0 0 1-1.236-1.814 5.618 5.618 0 0 1-.45-2.25zm30.192 20.822a7.116 7.116 0 0 1-2.851-.577 7.422 7.422 0 0 1-3.904-3.898 7.034 7.034 0 0 1-.576-2.841c0-1.014.192-1.97.576-2.87.383-.901.908-1.679 1.573-2.335a7.542 7.542 0 0 1 2.33-1.562 7.115 7.115 0 0 1 2.852-.577c1.011 0 1.961.193 2.851.577.89.384 1.662.906 2.317 1.562a7.341 7.341 0 0 1 1.56 2.334c.383.901.575 1.857.575 2.87v.422c0 .151-.019.404-.056.76H189.46c.13.545.346 1.041.646 1.492.3.45.655.844 1.067 1.181a4.76 4.76 0 0 0 3.034 1.07c.45 0 .899-.117 1.348-.352.45-.235.88-.549 1.292-.943l1.686 1.689a8.002 8.002 0 0 1-2.037 1.449c-.74.366-1.503.549-2.289.549zm4.747-8.527a5.678 5.678 0 0 0-.66-1.476 4.716 4.716 0 0 0-1.054-1.182 4.927 4.927 0 0 0-1.39-.774 4.776 4.776 0 0 0-1.643-.281 4.77 4.77 0 0 0-1.643.28 4.918 4.918 0 0 0-1.39.775 4.946 4.946 0 0 0-1.068 1.182c-.3.46-.515.952-.646 1.476zm12.008-6.161c1.01 0 1.966.192 2.865.577.899.384 1.68.905 2.345 1.561a7.235 7.235 0 0 1 1.573 2.336c.384.9.576 1.857.576 2.87 0 1.012-.192 1.96-.576 2.842a7.477 7.477 0 0 1-1.573 2.32 7.384 7.384 0 0 1-2.345 1.576 7.214 7.214 0 0 1-2.865.577 7.016 7.016 0 0 1-2.837-.577 7.466 7.466 0 0 1-3.89-3.896 7.04 7.04 0 0 1-.576-2.842V16.232h2.387v8.131a7.887 7.887 0 0 1 2.247-1.393 6.946 6.946 0 0 1 2.669-.52zm0 2.42a4.854 4.854 0 0 0-3.47 1.434c-.44.45-.79.976-1.053 1.576a4.727 4.727 0 0 0-.393 1.914c0 .675.131 1.313.393 1.913.263.6.614 1.121 1.054 1.562.44.44.96.792 1.559 1.054a4.698 4.698 0 0 0 1.91.394 4.77 4.77 0 0 0 1.938-.394 4.847 4.847 0 0 0 2.598-2.617c.253-.6.38-1.237.38-1.912a4.88 4.88 0 0 0-.38-1.914c-.253-.6-.6-1.125-1.04-1.576-.44-.45-.959-.801-1.558-1.054a4.928 4.928 0 0 0-1.938-.38zm13.196 5.936a3.856 3.856 0 0 1-1.475-.28 4.029 4.029 0 0 1-1.222-.775 3.787 3.787 0 0 1-.857-1.168 3.648 3.648 0 0 1-.351-1.463 2.766 2.766 0 0 1-.028-.436c0-.178.01-.323.028-.436.019-.506.136-.985.351-1.435a3.97 3.97 0 0 1 2.079-1.97c.459-.186.95-.28 1.475-.28h5.392v2.419h-5.392c-.394 0-.736.136-1.026.409-.29.272-.454.614-.491 1.026a1.548 1.548 0 0 0 0 .59c.037.395.2.728.491 1 .29.272.632.408 1.026.408h1.938a3.89 3.89 0 0 1 2.71 1.097c.347.338.627.731.843 1.182.215.45.332.938.35 1.463v.788a3.5 3.5 0 0 1-.322 1.505 4.45 4.45 0 0 1-.843 1.224 3.635 3.635 0 0 1-1.236.83 3.975 3.975 0 0 1-1.53.296h-5.534v-2.392h5.533a1.4 1.4 0 0 0 .97-.366 1.8 1.8 0 0 0 .547-.872v-.113c0-.037.005-.07.014-.098a.307.307 0 0 0 .014-.098v-.535a1.576 1.576 0 0 0-.463-1.083 1.469 1.469 0 0 0-1.082-.437zM40.73 7.502v23.774c0 5.712-3.804 9.522-8.498 9.522H8.498C3.804 40.798 0 36.988 0 32.285V8.511C0 3.81 3.804-.002 8.498-.002h23.734c4.694 0 8.498 3.81 8.498 7.504zM23.15 34.09c0-.321-.082-.63-.233-.902a1.892 1.892 0 0 0-.641-.679 4.387 4.387 0 0 1-2.05-3.715V12.876a1.86 1.86 0 0 0-3.17-1.315 1.858 1.858 0 0 0-.544 1.315v15.918a8.114 8.114 0 0 0 3.79 6.872c1.236.781 2.848-.111 2.848-1.576zm4.91-9.084a1.36 1.36 0 0 0-1.36-1.363h-.995c-.752 0-1.36.61-1.36 1.363v4.719a1.36 1.36 0 0 0 1.36 1.361h.995c.752 0 1.36-.61 1.36-1.361zm7.833-6.868a1.86 1.86 0 0 0-1.857-1.86 1.86 1.86 0 0 0-1.858 1.86v10.656a4.387 4.387 0 0 1-2.049 3.715 1.873 1.873 0 0 0-.874 1.581c0 1.092.894 1.864 1.864 1.864.33 0 .668-.09.985-.288a8.102 8.102 0 0 0 3.79-6.872z"/></g></g></svg>