<svg xmlns="http://www.w3.org/2000/svg" width="176" height="227" viewBox="0 0 176 227"><g><g><path fill="#e6e6e6" d="M60.289 210.028c0 13.336-14.641 21.447-25.88 14.338-20.675-13.07-34.41-36.191-34.41-62.534V16.935C-.001 7.58 7.55-.001 16.867-.001c9.315 0 16.867 7.582 16.867 16.936v144.897c0 14.222 7.432 26.735 18.608 33.819a17.186 17.186 0 0 1 5.821 6.165 16.95 16.95 0 0 1 2.126 8.212zm98.844-162.133c9.316 0 16.868 7.583 16.868 16.936v97c0 20.392-8.231 38.852-21.542 52.213a73.977 73.977 0 0 1-12.873 10.322c-2.863 1.81-5.947 2.632-8.954 2.632-8.795 0-16.92-7.035-16.92-16.975 0-5.845 3.016-11.25 7.941-14.372 11.176-7.084 18.613-19.597 18.613-33.82v-97c0-9.353 7.551-16.936 16.867-16.936zM98.126 182.688H77.87c-3.722 0-6.74-3.03-6.74-6.767v-54.213c0-3.737 3.018-6.766 6.74-6.766h20.256c3.722 0 6.74 3.03 6.74 6.766v54.213c0 3.737-3.018 6.767-6.74 6.767z"/></g></g></svg>