<svg xmlns="http://www.w3.org/2000/svg" width="1920" height="63" viewBox="0 0 1920 63"><g><g><path fill="#fff" d="M1125.22 17.27v3.013a43.008 43.008 0 0 1 11.447 7.472l27.04 24.525a37.366 37.366 0 0 0 25.15 9.711H1920v1.001h-731.144a38.364 38.364 0 0 1-25.82-9.97l-27.041-24.524c-15.976-14.49-40.073-14.492-56.05-.001l-27.04 24.526a38.36 38.36 0 0 1-25.822 9.97H0V61.99h1027.083a37.362 37.362 0 0 0 25.15-9.71l27.04-24.527a43.026 43.026 0 0 1 11.447-7.47v-3.013c0-9.545 7.72-17.276 17.25-17.276 9.53 0 17.25 7.731 17.25 17.276zm-24.5-4.005a2.75 2.75 0 1 0-5.5 0 2.75 2.75 0 1 0 5.5 0zm20 0a2.75 2.75 0 1 0-5.5 0 2.75 2.75 0 1 0 5.5 0z"/></g></g></svg>