<?xml version="1.0" encoding="utf-8"?>
<!-- Generator: Adobe Illustrator 18.1.1, SVG Export Plug-In . SVG Version: 6.00 Build 0)  -->
<svg version="1.1" id="Layer_1" xmlns="http://www.w3.org/2000/svg" xmlns:xlink="http://www.w3.org/1999/xlink" x="0px" y="0px"
	 viewBox="0 0 480 966" enable-background="new 0 0 480 966" xml:space="preserve">
<g id="Layer_3">
	<path fill="#18254F" d="M405.8,231.3c-23.3-23.3-61.1-23.3-84.5,0l-9.6,10.7l21,12.2l27.7,20.3l20,21.3l14.7,30l10.8-10.1
		C429.1,292.4,429.1,254.6,405.8,231.3z M342.1,246c-3.7-3.7-3.7-9.7,0-13.5c3.7-3.7,9.7-3.7,13.5,0c3.7,3.7,3.7,9.7,0,13.5
		C351.9,249.7,345.8,249.7,342.1,246z M391.1,294.9c-3.7-3.7-3.7-9.7,0-13.5c3.7-3.7,9.7-3.7,13.5,0c3.7,3.7,3.7,9.7,0,13.5
		C400.8,298.7,394.8,298.7,391.1,294.9z"/>
	<g>
		<path fill="#18254F" d="M228,857.3c-0.7,0-1.4,0-2,0c-1-1-2.2-1.8-3.1-2.9c-3.9-4.3-7.7-8.7-11.5-13c-5.7-6.6-11.4-13.3-17.1-19.9
			c0-0.9,0-1.7,0-2.6c0.2-1.2,0.4-2.3,0.5-3.5c0.2-3.2,0.4-6.4,0.7-9.7c0.6-8.3,1.3-16.6,1.9-24.9c0.6-7.5,1.1-15.1,1.6-22.6
			c0.6-8.4,1.3-16.8,1.9-25.2c0.4-5.3,0.8-10.5,1.1-15.8c0.6-8.3,1.3-16.6,1.9-24.9c0.6-7.5,0.8-15.1,1.7-22.6
			c1.1-8.9,0.5-17.6-0.9-26.3c-1.1-7.3-1.7-14.6-2.4-22c-0.4-4.7,1.5-8,6.1-9.6c12.3,0,24.5,0,36.8,0c4.7,1.6,6.1,5.1,6.2,9.8
			c0.2,7.6-1.2,15.1-2.5,22.5c-1.4,8.1-1.9,16.1-1.1,24.3c0.8,8.1,1.3,16.3,1.9,24.4c0.4,5.5,0.8,11,1.2,16.5
			c0.6,7.9,1.3,15.8,1.9,23.6c0.6,7.9,1.1,15.8,1.7,23.7c0.8,10.1,1.6,20.2,2.4,30.2c0.6,8,1.1,15.9,1.7,23.9
			c0.2,2.7,0.6,5.4,0.9,8.1c0,0.9,0,1.7,0,2.6c-0.8,1-1.5,2-2.3,3c-6,6.9-11.9,13.8-18,20.6C235.7,849.2,231.8,853.2,228,857.3z
			 M227,847.2c8.1-9.2,15.9-18.1,23.7-27.1c0.5-0.6,0.8-1.7,0.8-2.5c-0.3-5.6-0.7-11.2-1.2-16.8c-0.6-7.9-1.3-15.8-1.9-23.6
			c-0.6-7.8-1.1-15.6-1.7-23.4c-0.6-7.7-1.3-15.4-1.9-23.1c-0.6-8-1.1-15.9-1.7-23.9c-0.8-10.8-1.6-21.5-2.5-32.3
			c-0.3-4.5-0.8-8.9-1.1-13.3c-8.5,0-16.9,0-25.3,0c-0.7,9.5-1.4,18.9-2.1,28.3c-0.6,7.5-1.1,14.9-1.6,22.4
			c-0.6,8-1.3,15.9-1.9,23.9c-0.6,7.7-1,15.4-1.6,23.1c-0.8,10.1-1.6,20.2-2.4,30.2c-0.7,8.6-1.4,17.1-1.9,25.7
			c-0.1,1.9-0.1,4.4,1,5.7C211.2,829.4,219,838.1,227,847.2z M210.8,620.1c0,3.8-0.3,7.4,0.1,10.9c0.7,6.6,1.9,13,2.8,19.6
			c0.2,1.6,0.6,2.2,2.3,2.2c7.3-0.1,14.6-0.1,22,0c1.7,0,2.1-0.6,2.3-2.2c0.7-5.4,1.7-10.7,2.3-16.1c0.5-4.8,0.7-9.6,1-14.5
			C232.3,620.1,221.7,620.1,210.8,620.1z M221.9,672.9c-0.7,8.8-1.4,17.6-2.1,26.4c-0.6,8-1.1,15.9-1.7,23.9
			c-0.8,10.1-1.6,20.2-2.4,30.2c-0.6,8-1,16.1-1.7,24.2c-0.9,12.2-2,24.4-2.9,36.6c-0.2,2.4,1.5,4.6,3.7,4.8c2,0.2,3.8-1.4,4-3.8
			c0.6-5.9,1-11.8,1.5-17.8c0.6-7.9,1.1-15.8,1.7-23.6c0.6-8.1,1.3-16.3,1.9-24.4c0.6-7.8,1.1-15.6,1.7-23.4
			c0.6-8.1,1.3-16.3,1.9-24.4c0.6-7.6,1.1-15.3,1.7-22.9c0.1-0.7,0.5-1.6,1.1-2.1c1.4-1.3,2.3-2.7,1.5-4.7c-0.9-2.1-2.6-2.7-4.7-2.8
			C224,669.1,222.1,670.4,221.9,672.9z"/>
	</g>
	<g>
		<path fill="#18254F" d="M230.3,412.4c2.3,0,3.9,0,5.5,0c47.5,0,95,0,142.5,0c6,0,6.5,0.6,6.4,6.5
			c-0.2,71.3-50.9,135.5-120.6,152.1c-52.4,12.5-100.2,1.2-141.6-33.9c-28-23.7-46-54-52.6-90c-8.9-48.3,1.6-92.4,32.7-130.8
			c23.6-29.1,53.9-47.7,90.6-55.5c9.9-2.1,20.3-2.6,30.4-3.5c5.5-0.5,6.6,1,6.6,6.5c0,47.6,0,95.3,0,142.9
			C230.3,408.5,230.3,410.2,230.3,412.4z M221.8,266.5c-51.3-0.1-117.8,33.8-139.9,107.4C60.7,444.6,94.8,520.8,161,552.2
			c65.4,31.1,140.9,11,180.6-40.9c-0.5-0.4-0.9-0.9-1.4-1.3c-38.2-29.7-76.4-59.3-114.7-88.9c-2.5-2-3.5-3.9-3.5-7.1
			c0.1-47.5,0.1-95,0.1-142.5C222,269.9,221.9,268.2,221.8,266.5z M240.1,420.9c-0.1,0.3-0.3,0.5-0.4,0.8
			c35.9,27.8,71.8,55.6,108,83.7c18.3-25.3,27.6-53.3,29-84.5C330.8,420.9,285.4,420.9,240.1,420.9z"/>
		<path fill="#18254F" d="M249.9,311.1c0-25,0-50.1,0-75.1c0-5.8,0.6-6.4,6.2-6.3c47.2,0.8,86.4,19.3,117.7,54.4
			c18.9,21.2,31,45.9,36.3,73.7c1.9,9.9,2,20.1,2.9,30.1c0.3,3.1-1.7,4.4-4.2,4.9c-1,0.2-2.2,0.1-3.2,0.1c-49.3,0-98.5,0-147.8,0
			c-7,0-7.9-0.9-7.9-7.8C249.9,360.3,249.9,335.7,249.9,311.1z M404.6,384.6c-2.2-45.6-20.1-82.8-54.4-111.7
			c-26.4-22.1-57-33.6-91.8-34.5c-0.1,1.9-0.2,2.9-0.2,4c0,45.9,0,91.8-0.1,137.6c0,4,1.4,4.6,4.9,4.6c45.2-0.1,90.4-0.1,135.6-0.1
			C400.3,384.6,402,384.6,404.6,384.6z"/>
		<path fill="#18254F" d="M88.2,410.9c1.4-31.3,12.1-59,32.3-83.1c2.9-3.4,6-6.6,9.1-9.8c1.9-2,4.1-3.4,6.6-0.9s1.5,4.8-0.7,6.9
			c-15.5,15-26.4,32.9-33,53.4c-4,12.5-5.6,25.4-6.2,38.5c-0.1,1.5-1,3.6-2.1,4.2c-1.2,0.6-3.8,0.2-4.7-0.8c-1-1.2-0.9-3.4-1.2-5.2
			C88.1,413,88.2,411.9,88.2,410.9z"/>
		<path fill="#18254F" d="M152.8,308.8c-1.1-1-3-1.8-3.2-3c-0.3-1.4,0.2-4,1.2-4.6c7.9-4.5,15.9-8.8,24.1-12.7c1-0.5,4,1.4,4.9,2.9
			c1.2,2.1-0.2,4-2.5,5.1c-4.7,2.2-9.4,4.5-14.1,6.8c-2.3,1.2-4.4,2.6-6.6,3.9C155.5,307.8,154.4,308.2,152.8,308.8z"/>
	</g>
</g>
</svg>
