<svg xmlns="http://www.w3.org/2000/svg" width="100" height="36" viewBox="0 0 100 36">
    <g>
        <g>
            <path d="M40.431 35.926a2.64 2.64 0 0 1-2.258-1.262l-2.634-4.22a5.185 5.185 0 0 0-4.418-2.467H-.004v-1.013h31.125c2.147 0 4.113 1.099 5.261 2.938l2.635 4.22c.323.518.873.796 1.48.79a1.661 1.661 0 0 0 1.42-.9L43.08 31.8c1.568-2.983 4.613-4.836 7.945-4.836a3.04 3.04 0 0 0 2.884-2.108l7.689-23.403a2.137 2.137 0 0 1 2.01-1.496 2.161 2.161 0 0 1 2.06 1.425l8.65 23.575a3.053 3.053 0 0 0 2.847 2.007H100v1.013H77.165c-1.678 0-3.198-1.071-3.783-2.667l-8.65-23.575c-.21-.575-.724-.814-1.107-.765a1.136 1.136 0 0 0-1.08.804l-7.69 23.403c-.55 1.675-2.09 2.8-3.83 2.8-2.963 0-5.67 1.648-7.065 4.3l-1.163 2.212a2.647 2.647 0 0 1-2.366 1.437z"/>
        </g>
    </g>
</svg>
