<svg width="208" height="47" viewBox="0 0 208 47" fill="none" xmlns="http://www.w3.org/2000/svg">
<path d="M208 0H0V3H208V0Z" fill="#0B1433"/>
<path d="M208 1V2C186.3 2 165.92 9.767 149.41 23.876L136.29 35.1C131.92 38.8371 126.937 41.7903 121.56 43.829C119.029 44.7848 116.424 45.5287 113.77 46.053C110.61 46.684 107.4 46.995 104.19 46.995C100.98 46.995 97.76 46.685 94.59 46.053C92.1215 45.5617 89.6944 44.8817 87.33 44.019C81.9062 42.0343 76.8706 39.1178 72.45 35.401L58.07 23.336C41.67 9.577 21.38 2 0 2V1C21.62 1 42.13 8.656 58.71 22.565L73.09 34.63C77.49 38.318 82.36 41.114 87.48 42.998C88.92 34.911 95.97 28.768 104.46 28.768C112.89 28.768 119.9 34.821 121.4 42.818C126.598 40.8298 131.415 37.962 135.64 34.34L148.76 23.116C165.45 8.855 186.07 1 208 1ZM111.71 42.044C111.709 42.4056 111.78 42.7638 111.918 43.0981C112.056 43.4323 112.258 43.7362 112.514 43.9921C112.769 44.2481 113.072 44.4512 113.406 44.5898C113.74 44.7285 114.098 44.7999 114.46 44.8C115.98 44.8 117.21 43.567 117.21 42.044C117.211 41.6824 117.14 41.3242 117.002 40.9899C116.864 40.6557 116.662 40.3518 116.406 40.0959C116.151 39.8399 115.848 39.6368 115.514 39.4982C115.18 39.3596 114.822 39.2881 114.46 39.288C114.098 39.2881 113.74 39.3596 113.406 39.4982C113.072 39.6368 112.769 39.8399 112.514 40.0959C112.258 40.3518 112.056 40.6557 111.918 40.9899C111.78 41.3242 111.709 41.6824 111.71 42.044ZM91.71 42.044C91.7094 42.4056 91.78 42.7638 91.9179 43.0981C92.0558 43.4323 92.2582 43.7362 92.5136 43.9921C92.769 44.2481 93.0724 44.4512 93.4064 44.5898C93.7404 44.7285 94.0984 44.7999 94.46 44.8C95.98 44.8 97.21 43.567 97.21 42.044C97.2107 41.6824 97.14 41.3242 97.0021 40.9899C96.8642 40.6557 96.6618 40.3518 96.4064 40.0959C96.151 39.8399 95.8476 39.6368 95.5136 39.4982C95.1796 39.3596 94.8216 39.2881 94.46 39.288C94.0984 39.2881 93.7404 39.3596 93.4064 39.4982C93.0724 39.6368 92.769 39.8399 92.5136 40.0959C92.2582 40.3518 92.0558 40.6557 91.9179 40.9899C91.78 41.3242 91.7094 41.6824 91.71 42.044Z" fill="white"/>
</svg>
