<svg xmlns="http://www.w3.org/2000/svg" width="240" height="46" viewBox="0 0 240 46"><g><g><path fill="#fff" d="M240 0V1h-15.35c-21.7 0-42.73 7.767-59.24 21.876L152.29 34.1a49.87 49.87 0 0 1-14.73 8.729 48.857 48.857 0 0 1-7.79 2.224c-3.16.631-6.37.942-9.58.942s-6.43-.31-9.6-.942a49.215 49.215 0 0 1-7.26-2.034A49.62 49.62 0 0 1 88.45 34.4L74.07 22.336C57.67 8.577 36.86 1 15.48 1H0V0h15.48C37.1 0 58.13 7.655 74.71 21.564L89.09 33.63c4.4 3.688 9.27 6.484 14.39 8.368 1.44-8.087 8.49-14.23 16.98-14.23 8.43 0 15.44 6.053 16.94 14.05a48.5 48.5 0 0 0 14.24-8.478l13.12-11.224C181.45 7.855 202.72 0 224.65 0zM127.71 41.044a2.751 2.751 0 0 0 2.75 2.755c1.52 0 2.75-1.232 2.75-2.755a2.751 2.751 0 1 0-5.5 0zm-20 0a2.751 2.751 0 0 0 2.75 2.755c1.52 0 2.75-1.232 2.75-2.755a2.751 2.751 0 1 0-5.5 0z"/></g></g></svg>