<svg xmlns="http://www.w3.org/2000/svg" width="496" height="99" viewBox="0 0 496 99">
    <g>
        <g>
            <path fill="#fff"
                  d="M133.522 34.998h7.54V63.7c0 8.827-7.163 15.987-15.992 15.987h-.31c-8.828 0-15.984-7.16-15.984-15.988V34.999h7.54V63.7c0 4.658 3.785 8.45 8.445 8.45h.309c4.66 0 8.452-3.792 8.452-8.45zm43.83 29.152c0 8.71-7.064 15.772-15.777 15.772-3.023 0-5.837-.865-8.237-2.34v15.73h-7.54V63.652h.025c.265-8.479 7.206-15.274 15.752-15.274 8.713 0 15.776 7.06 15.776 15.77zm-7.54 0c0-4.54-3.696-8.235-8.237-8.235-4.542 0-8.237 3.694-8.237 8.235 0 4.54 3.695 8.234 8.237 8.234 4.541 0 8.236-3.694 8.236-8.234zm128.217-29.34h7.54v29.658h-.025c-.265 8.479-7.206 15.275-15.751 15.275-8.713 0-15.777-7.062-15.777-15.772S281.08 48.2 289.793 48.2c3.022 0 5.837.865 8.236 2.339zm0 29.163v-.003c0-4.54-3.695-8.233-8.236-8.233-4.542 0-8.237 3.694-8.237 8.234 0 4.541 3.695 8.234 8.237 8.234 4.541 0 8.236-3.693 8.236-8.232zm-91.406 13.013a13.214 13.214 0 0 1 3.292 8.732c0 7.341-5.949 13.281-13.285 13.281-.128 0-.264 0-.392-.008v-7.552c.128.014.256.022.392.022a5.748 5.748 0 0 0 5.745-5.743 5.753 5.753 0 0 0-5.745-5.744 3.39 3.39 0 0 0-.392.023v-.138c-8.131-.635-14.535-7.417-14.535-15.71 0-8.71 7.063-15.77 15.776-15.77 8.713 0 15.777 7.06 15.777 15.77 0 5.3-2.623 9.977-6.633 12.837zm-9.144-4.602c4.542 0 8.237-3.694 8.237-8.234s-3.695-8.235-8.237-8.235-8.236 3.694-8.236 8.235c0 4.54 3.694 8.234 8.236 8.234zm71.334-10.49h.152v17.783h-7.54v-2.273a15.681 15.681 0 0 1-8.236 2.339c-8.713 0-15.777-7.062-15.777-15.772S244.476 48.2 253.19 48.2c8.007 0 14.604 5.968 15.624 13.693zm-7.388 2.077c0-4.54-3.695-8.234-8.236-8.234-4.542 0-8.237 3.694-8.237 8.234 0 4.541 3.695 8.234 8.237 8.234 4.541 0 8.236-3.693 8.236-8.234zm57.35 3.77c1.334 2.743 4.154 4.643 7.404 4.643a8.129 8.129 0 0 0 3.74-.904l5.473 5.471a15.682 15.682 0 0 1-9.213 2.97c-7.472 0-13.738-5.2-15.359-12.18a15.844 15.844 0 0 1 .083-7.539c1.757-6.797 7.932-11.825 15.276-11.825 7.35 0 13.526 5.028 15.283 11.826a15.838 15.838 0 0 1 .082 7.538zm14.634-7.538a8.238 8.238 0 0 0-7.23-4.288 8.226 8.226 0 0 0-7.224 4.288zm-100.588-12.03h3.13v7.538h-3.13c-3.838 0-6.96 3.12-6.96 6.957v16.5h-7.539v-16.5c0-8.004 6.492-14.494 14.499-14.494zM353.7 35.117h5.27v32.277c0 .968.191 1.887.575 2.755a7.675 7.675 0 0 0 1.515 2.271 6.624 6.624 0 0 0 2.241 1.513 7.05 7.05 0 0 0 2.756.545c.97 0 1.887-.181 2.756-.545a6.99 6.99 0 0 0 2.272-1.513 7.432 7.432 0 0 0 1.544-2.271 6.755 6.755 0 0 0 .575-2.755V35.116h5.27v32.277c0 .968.183 1.887.546 2.755a6.962 6.962 0 0 0 3.786 3.784 7.05 7.05 0 0 0 2.756.545c.969 0 1.887-.181 2.756-.545a6.638 6.638 0 0 0 2.24-1.513 7.686 7.686 0 0 0 1.515-2.271 6.744 6.744 0 0 0 .576-2.755V35.116h5.27v32.277c0 1.736-.324 3.351-.969 4.844a12.197 12.197 0 0 1-2.666 3.905 12.806 12.806 0 0 1-3.937 2.635c-1.495.646-3.09.97-4.785.97-1.98 0-3.816-.425-5.513-1.273-1.696-.848-3.11-1.977-4.24-3.39-1.13 1.413-2.544 2.542-4.24 3.39-1.696.848-3.534 1.273-5.512 1.273-1.696 0-3.291-.324-4.785-.97a12.804 12.804 0 0 1-3.938-2.635 12.185 12.185 0 0 1-2.665-3.905c-.646-1.492-.969-3.108-.969-4.844zm65.11 44.812c-2.18 0-4.23-.415-6.148-1.242a15.962 15.962 0 0 1-5.027-3.39 16.07 16.07 0 0 1-3.392-4.997c-.829-1.897-1.242-3.936-1.242-6.116 0-2.18.413-4.239 1.242-6.177.827-1.937 1.958-3.612 3.392-5.025 1.433-1.413 3.109-2.533 5.027-3.362 1.918-.826 3.968-1.24 6.149-1.24 2.18 0 4.23.414 6.148 1.24 1.917.83 3.583 1.949 4.997 3.362 1.413 1.413 2.534 3.088 3.362 5.025.827 1.938 1.242 3.997 1.242 6.177v.908c0 .324-.041.869-.12 1.635h-25.866a9.916 9.916 0 0 0 1.392 3.21c.646.969 1.414 1.817 2.303 2.543a10.27 10.27 0 0 0 6.542 2.302c.968 0 1.938-.252 2.907-.757.969-.505 1.897-1.181 2.786-2.029l3.635 3.633a17.256 17.256 0 0 1-4.391 3.118c-1.597.789-3.241 1.182-4.937 1.182zm10.238-18.35a12.208 12.208 0 0 0-1.424-3.178 10.18 10.18 0 0 0-2.272-2.543 10.61 10.61 0 0 0-2.998-1.666 10.313 10.313 0 0 0-3.543-.605c-1.252 0-2.434.202-3.544.605a10.59 10.59 0 0 0-2.998 1.666 10.678 10.678 0 0 0-2.303 2.543c-.645.99-1.11 2.05-1.392 3.179zm25.895-13.26c2.18 0 4.24.414 6.178 1.24 1.939.829 3.624 1.949 5.058 3.362 1.433 1.413 2.564 3.088 3.392 5.026.827 1.938 1.242 3.996 1.242 6.176s-.415 4.22-1.242 6.116a16.1 16.1 0 0 1-3.392 4.997c-1.434 1.433-3.12 2.563-5.058 3.39-1.938.827-3.998 1.241-6.178 1.241-2.18 0-4.22-.414-6.119-1.241a16.082 16.082 0 0 1-4.997-3.39 16.074 16.074 0 0 1-3.392-4.997c-.828-1.896-1.241-3.936-1.241-6.116V34.935h5.148v17.5a17.019 17.019 0 0 1 4.846-2.997 14.99 14.99 0 0 1 5.755-1.12zm0 5.208a10.48 10.48 0 0 0-4.12.817 10.176 10.176 0 0 0-3.361 2.271 11.217 11.217 0 0 0-2.272 3.39 10.157 10.157 0 0 0-.848 4.118c0 1.454.282 2.827.848 4.118a10.83 10.83 0 0 0 2.272 3.36 10.833 10.833 0 0 0 3.362 2.272c1.292.566 2.665.848 4.119.848 1.493 0 2.886-.282 4.179-.848a10.85 10.85 0 0 0 3.362-2.271 10.428 10.428 0 0 0 2.241-3.36c.546-1.292.818-2.665.818-4.119 0-1.453-.272-2.825-.818-4.118a10.79 10.79 0 0 0-2.241-3.39 10.19 10.19 0 0 0-3.362-2.271c-1.293-.546-2.686-.817-4.18-.817zM483.4 66.302a8.33 8.33 0 0 1-3.18-.605 8.683 8.683 0 0 1-2.635-1.666 8.161 8.161 0 0 1-1.848-2.513 7.842 7.842 0 0 1-.758-3.149 5.935 5.935 0 0 1-.06-.938c0-.383.02-.696.06-.939a7.72 7.72 0 0 1 .758-3.087 8.53 8.53 0 0 1 4.482-4.239 8.33 8.33 0 0 1 3.18-.606h11.63v5.207H483.4c-.848 0-1.585.294-2.21.879-.627.586-.98 1.323-1.06 2.21a3.333 3.333 0 0 0 0 1.27c.08.85.433 1.566 1.06 2.151a3.13 3.13 0 0 0 2.21.878h4.18c1.13 0 2.2.212 3.21.636 1.009.424 1.888 1 2.636 1.726a8.845 8.845 0 0 1 1.816 2.543c.464.97.718 2.02.758 3.15v1.695c0 1.172-.233 2.251-.697 3.239a9.563 9.563 0 0 1-1.817 2.635 7.834 7.834 0 0 1-2.666 1.786 8.578 8.578 0 0 1-3.3.635h-11.933v-5.147h11.932c.808 0 1.505-.261 2.09-.787a3.872 3.872 0 0 0 1.181-1.877v-.242c0-.08.01-.152.03-.213.02-.06.03-.13.03-.21v-1.152c-.04-.928-.373-1.705-.998-2.331-.627-.625-1.404-.939-2.333-.939zM87.835 16.148v51.166c0 12.291-8.203 20.493-18.327 20.493H18.326C8.203 87.807 0 79.605 0 69.486V18.32C0 8.2 8.203-.001 18.326-.001h51.182c10.124 0 18.327 8.2 18.327 16.149zm-37.909 57.22c0-.69-.178-1.354-.504-1.94a4.082 4.082 0 0 0-1.381-1.46 9.44 9.44 0 0 1-4.42-7.996V27.714a4.007 4.007 0 0 0-8.01 0v34.258c0 6.228 3.262 11.696 8.172 14.79 2.667 1.68 6.143-.24 6.143-3.393zM60.514 53.82a2.931 2.931 0 0 0-2.932-2.932h-2.147a2.932 2.932 0 0 0-2.932 2.932v10.155a2.93 2.93 0 0 0 2.932 2.931h2.147a2.93 2.93 0 0 0 2.932-2.93zm16.893-14.78a4.007 4.007 0 0 0-8.012 0v22.933a9.44 9.44 0 0 1-4.418 7.996 4.03 4.03 0 0 0-1.886 3.4c0 2.35 1.93 4.014 4.019 4.014.712 0 1.442-.195 2.125-.62 1.107-.7 2.133-1.521 3.058-2.442a17.42 17.42 0 0 0 5.114-12.348z"/>
        </g>
    </g>
</svg>
