<svg width="42" height="71" viewBox="0 0 42 71" xmlns="http://www.w3.org/2000/svg">
<path d="M42 -0.000999451V69.999H39V5.49364e-07L42 -0.000999451ZM29 -0.000999451V69.999H26V5.49364e-07L29 -0.000999451Z"/>
<path d="M17.3516 5.8623L5.49219 10.0625L17.3516 14.2402L17.3516 18.665L1 18.665V15.2847L5.46973 15.2847L13.1851 15.6216L1 11.208V8.89453L13.1738 4.49219L5.46973 4.8291L1 4.8291V1.45996L17.3516 1.45996V5.8623ZM8.08643 31.4453L8.08643 24.9766H3.70654V32.5684H1V21.6074L17.3516 21.6074V32.5459H14.6226V24.9766H10.7256L10.7256 31.4453L8.08643 31.4453ZM1 47.853V44.4839H8.00781L8.00781 37.9141H1L1 34.5449H17.3516V37.9141H10.7256L10.7256 44.4839H17.3516V47.853H1ZM8.80518 70.0444C7.19548 70.0444 5.78418 69.7599 4.57129 69.1909C3.3584 68.6219 2.42253 67.8058 1.76367 66.7427C1.10482 65.687 0.775391 64.4741 0.775391 63.104C0.775391 61.8537 1.04492 60.7306 1.58398 59.7349C2.13053 58.7466 2.91292 57.9417 3.93115 57.3203C4.94938 56.7064 6.13981 56.3283 7.50244 56.186V54.3105H1V50.9414H17.3516V54.3105H10.1191V56.1299C11.5941 56.1973 12.8968 56.5229 14.0273 57.1069C15.1579 57.6984 16.0301 58.5107 16.644 59.5439C17.2655 60.5846 17.5762 61.7638 17.5762 63.0815C17.5762 64.4442 17.2467 65.6533 16.5879 66.709C15.9365 67.7721 14.9969 68.592 13.769 69.1685C12.5487 69.7524 11.1374 70.0444 9.53516 70.0444H8.80518ZM9.54639 66.6304C11.2609 66.6304 12.5636 66.3234 13.4546 65.7095C14.3455 65.0955 14.791 64.2196 14.791 63.0815C14.791 61.951 14.3493 61.0788 13.4658 60.4648C12.5898 59.8509 11.3021 59.5402 9.60254 59.5327H8.80518C7.13558 59.5327 5.84033 59.8397 4.91943 60.4536C3.99854 61.0675 3.53809 61.951 3.53809 63.104C3.53809 64.2345 3.97982 65.103 4.86328 65.7095C5.75423 66.3159 7.04948 66.6229 8.74902 66.6304H9.54639Z"/>
</svg>
