<svg width="35" height="19" viewBox="0 0 35 19" fill="none" xmlns="http://www.w3.org/2000/svg">
<path d="M35 19C35 19 23.2385 17.434 17.369 17.5C11.4995 17.566 0 19 0 19C0 9.594 7.709 0.908001 17.369 0.908001C27.029 0.908001 35 9.594 35 19ZM10.02 13.986C10.02 12.486 8.773 11.272 7.232 11.272C5.692 11.272 4.445 12.486 4.445 13.986C4.445 15.486 5.69 16.7 7.232 16.7C8.774 16.7 10.02 15.486 10.02 13.986ZM30.294 13.986C30.294 12.486 29.047 11.272 27.506 11.272C25.966 11.272 24.719 12.486 24.719 13.986C24.719 15.486 25.965 16.7 27.506 16.7C29.047 16.7 30.294 15.486 30.294 13.986Z" fill="white"/>
</svg>
